<svg width="140" height="38" viewBox="0 0 140 38" fill="none" xmlns="http://www.w3.org/2000/svg"><path d="M102.129 18.928v6.702c0 2.338-.589 4.502-1.801 6.511-1.403 2.32-3.377 3.966-5.853 4.97-.901.364-1.836.641-2.858.728-.623.052-1.247.19-1.87.156-2.182-.139-4.243-.693-6.096-1.905-2.147-1.386-3.74-3.256-4.745-5.611-.64-1.49-.883-3.065-.935-4.676-.017-.918.745-1.974 1.524-2.113 1.056-.173 1.749-.086 2.442.935.415.624.346 1.386.415 2.078.312 2.98 1.905 5.005 4.572 6.27 1.524.727 3.135.813 4.693.502 2.182-.433 3.931-1.646 5.091-3.62.78-1.316 1.109-2.736 1.126-4.242 0-1.247 0-2.494.017-3.741 0-.104.052-.225-.052-.277-.138-.087-.225.052-.311.121-1.091.918-2.32 1.559-3.671 1.974-1.576.502-3.204.762-4.884.572-1.75-.208-3.412-.676-4.918-1.576-2.269-1.368-3.949-3.238-5.04-5.68-1.004-2.234-1.177-4.572-.796-6.893.364-2.303 1.454-4.346 3.082-6.06C82.647 2.58 84.275 1.454 86.18.865 88.067.277 89.99 0 92.015.398 94.96.97 97.368 2.321 99.29 4.59a11.6 11.6 0 0 1 2.268 4.19 12.7 12.7 0 0 1 .555 3.863c-.035 2.078 0 4.156 0 6.251zm-19.777-6.615c-.173 4.26 3.516 7.81 7.758 7.775 4.295-.034 7.724-3.533 7.724-7.706 0-4.503-3.463-7.828-7.775-7.845-4.157 0-7.828 3.377-7.707 7.776m49.181 4.797v4.814c0 1.264-.467 1.957-1.524 2.32-.969.33-2.078-.155-2.511-1.108-.155-.346-.294-.693-.259-1.09.017-.347-.087-.451-.399-.209a10.7 10.7 0 0 1-3.584 1.905c-1.697.52-3.429.762-5.23.502-1.611-.225-3.117-.692-4.503-1.506-1.974-1.16-3.55-2.736-4.641-4.78-1.16-2.182-1.628-4.52-1.385-6.944a11.7 11.7 0 0 1 1.801-5.109c1.073-1.68 2.459-3.065 4.208-4.035C116 .502 118.615-.12 121.507.433c3.169.589 5.68 2.165 7.637 4.676 1.177 1.524 1.904 3.273 2.234 5.143.173 1.022.173 2.095.155 3.169-.017 1.23 0 2.46 0 3.689m-4.312-4.745c.087-4.416-3.463-7.845-7.706-7.845-4.433 0-7.775 3.394-7.827 7.706-.052 4.295 3.307 7.81 7.74 7.828 4.382.034 7.828-3.498 7.793-7.707zm-77.028-.295c.035 6.702-5.472 12.088-12.035 12.105-6.598 0-12.088-5.42-12.053-12.053C26.139 5.282 31.629 0 38.26.052c6.373.052 11.846 5.109 11.932 12.018M38.14 4.381c-4.242-.138-7.775 3.55-7.758 7.793.035 4.208 3.515 7.845 7.966 7.706 4.243-.12 7.602-3.446 7.585-7.792 0-4.226-3.325-7.776-7.81-7.707zM24.079 16.348v5.559c0 .952-.433 1.662-1.299 2.095-1.35.658-2.805-.416-2.927-1.559-.034-.38-.069-.744-.069-1.125 0-3.048.052-6.113 0-9.161-.052-3.135-1.472-5.524-4.277-6.996-1.801-.936-3.723-1.022-5.663-.485-2.407.658-4.018 2.216-5.022 4.45-.433.987-.606 2.061-.606 3.135-.017 3.186 0 6.39 0 9.576 0 .918-.295 1.646-1.16 2.113-1.3.71-3.031-.242-3.048-1.732-.018-1.628 0-3.238 0-4.866 0-1.836-.018-3.688 0-5.524C.042 8.312 1.48 5.438 4.043 3.1A11.8 11.8 0 0 1 8.459.589c.606-.19 1.246-.33 1.887-.416s1.282-.208 1.922-.156c2.182.156 4.243.71 6.113 1.905 2.183 1.386 3.776 3.29 4.78 5.663.364.849.572 1.732.745 2.65.38 2.182.07 4.364.19 6.147zm32.262.64c0 1.715-.035 3.412 0 5.126.035.953-.918 1.853-1.714 2.044-.918.208-1.957-.398-2.338-1.264-.19-.45-.277-.9-.26-1.386 0-3.082-.035-6.182 0-9.265.052-3.411 1.264-6.39 3.706-8.797A11.4 11.4 0 0 1 60.047.78C61.363.33 62.645 0 64.013 0c2.892 0 5.472.9 7.723 2.736 2.026 1.663 3.395 3.74 4.087 6.27.225.813.277 1.644.399 2.458.173 1.282-.45 2.182-1.472 2.632-.987.433-2.373-.329-2.667-1.402-.139-.485-.174-.97-.225-1.472-.26-2.771-1.68-4.797-4.105-6.061-3.879-2.01-8.797-.433-10.615 3.654-.485 1.108-.762 2.25-.762 3.463v4.71zm82.796-1.575c0 2.199-.035 4.398 0 6.598.034 1.212-1.022 2.043-1.992 2.147-1.022.104-2.009-.745-2.182-1.819a2.6 2.6 0 0 1-.052-.502V9.11c0-.866.26-1.559 1.039-2.026.658-.398 1.351-.398 2.009-.087.693.33 1.16.9 1.16 1.732v6.702zm-.001-12.937c0 1.23-.866 2.061-2.113 2.061s-2.095-.866-2.095-2.078c0-1.368 1.073-2.13 2.13-2.182 1.125-.07 2.061 1.004 2.061 2.217zm-30.86 19.414a2.063 2.063 0 0 1-2.13 2.077c-1.333-.034-2.078-1.039-2.147-2.112-.069-1.057 1.16-2.234 2.199-2.165 1.074.086 2.096.935 2.078 2.2" fill="#fff"/></svg>