<svg width="819" height="343" viewBox="0 0 819 343" fill="none" xmlns="http://www.w3.org/2000/svg"><circle cx="397.827" cy="245.825" r="67.219" fill="#EDE4FF" class="float"/><path d="M397.825 338.149a3.5 3.5 0 1 0 0-7zm-42.751-14.464-1.684 3.068zm-32.196-30.186 2.953-1.879zm-5.504-85.324-3.17-1.483zm28.051-34.073-2.065-2.826zm40.987-16.366-.449-3.471zm43.805 5.381-1.276 3.259zm17.141 25.8c0 10.309 8.358 18.666 18.667 18.666s18.667-8.357 18.667-18.666-8.358-18.667-18.667-18.667-18.667 8.357-18.667 18.667m-49.533 142.232a85.3 85.3 0 0 1-41.066-10.532l-3.369 6.136a92.3 92.3 0 0 0 44.435 11.396zm-41.066-10.532a85.3 85.3 0 0 1-30.928-28.997l-5.906 3.757a92.3 92.3 0 0 0 33.465 31.376zm-30.928-28.997a85.3 85.3 0 0 1-13.154-40.303l-6.985.451a92.3 92.3 0 0 0 14.233 43.609zm-13.154-40.303a85.3 85.3 0 0 1 7.867-41.658l-6.34-2.967a92.3 92.3 0 0 0-8.512 45.076zm7.867-41.658a85.3 85.3 0 0 1 26.946-32.731l-4.13-5.652a92.3 92.3 0 0 0-29.156 35.416zm26.946-32.731a85.3 85.3 0 0 1 39.372-15.721l-.899-6.942a92.3 92.3 0 0 0-42.603 17.011zm39.372-15.721a85.3 85.3 0 0 1 42.079 5.169l2.553-6.518a92.3 92.3 0 0 0-45.531-5.593zm42.079 5.169a85.3 85.3 0 0 1 34.397 24.783l5.374-4.485a92.3 92.3 0 0 0-37.218-26.816z" fill="#EDE4FF" class="float"/><path fill-rule="evenodd" clip-rule="evenodd" d="M459.44 273.637c-11.051 9.132-25.106 14.599-40.407 14.599-35.577 0-64.418-29.557-64.418-66.018 0-12.527 3.404-24.239 9.317-34.217-19.713 11.716-32.924 33.227-32.924 57.824 0 37.124 30.095 67.218 67.219 67.218 27.204 0 50.634-16.161 61.213-39.406" fill="#D7BBF5" class="float"/><circle cx="385.021" cy="276.233" r="8.402" fill="#D7BBF5" stroke="#EDE4FF" stroke-width="4" class="float"/><circle cx="356.413" cy="218.417" r="5.001" fill="#D7BBF5" stroke="#EDE4FF" stroke-width="4" class="float"/><circle cx="401.626" cy="188.809" r="5.001" fill="#D7BBF5" stroke="#EDE4FF" stroke-width="4" class="float"/><circle cx="410.029" cy="221.618" r="8.602" fill="#D7BBF5" stroke="#EDE4FF" stroke-width="4" class="float"/><circle cx="441.239" cy="244.825" r="16.204" fill="#D7BBF5" stroke="#EDE4FF" stroke-width="4" class="float"/><circle cx="402.626" cy="248.626" r="9.602" fill="#D7BBF5" stroke="#EDE4FF" stroke-width="4" class="float"/><circle cx="374.618" cy="206.214" r="7.201" fill="#D7BBF5" stroke="#EDE4FF" stroke-width="4" class="float"/><circle cx="379.821" cy="230.621" r="4.401" fill="#D7BBF5" stroke="#EDE4FF" stroke-width="4" class="float"/><path d="m334.947 195.453 3.867 1.504 12.459-4.511s2.565 2.144 4.081 3.652c1.136 1.13 2.021 1.602 2.793 3.007.307.56.84.896.644 1.504-.165.511-.575.662-1.074.859-.624.247-1.053.087-1.719 0-1.562-.205-3.436-1.718-4.081-1.289-.644.43-.712 1.452-1.074 2.793-.362 1.34 2.215 5.031 1.074 7.947-.314.805-.299 1.552-1.074 1.934-.602.297-1.074.188-1.718 0-1.197-.35-1.407-1.361-2.148-2.363-1.384-1.87-2.578-5.37-2.578-5.37s.83 2.716 1.074 4.511c.17 1.249.524 1.999.215 3.222-.157.619-.11 1.154-.645 1.503-.358.234-.646.215-1.074.215-.427 0-.685-.036-1.074-.215-.702-.323-.866-.856-1.289-1.503-.596-.913-.667-1.566-1.074-2.578-.901-2.241-2.148-5.8-2.148-5.8s.42 3.963 0 6.444c-.128.763.223 1.518-.429 1.934-.292.185-.514.215-.859.215-.346 0-.547-.067-.86-.215-.82-.389-.872-1.127-1.289-1.934-.644-1.249-.816-2.054-1.074-3.436-.399-2.145-.533-3.4-.429-5.585.064-1.351.11-2.123.429-3.437.295-1.212 1.074-3.008 1.074-3.008" fill="#EDE4FF" class="float"/><path d="M338.385 135.308s13.654-14.714 24.917-20.192c12.029-5.85 33.51-7.088 33.51-7.088s8.72 12.63 12.888 21.48c6.266 13.302 10.74 36.088 10.74 36.088l-47.042 27.71s-12.779-14.627-19.332-25.133c-7.527-12.065-15.681-32.865-15.681-32.865" fill="#A076F9" class="float"/><path d="M355.14 112.539c-11.263 5.477-24.917 20.191-24.917 20.191s8.154 20.8 15.68 32.866c6.554 10.506 19.333 25.132 19.333 25.132l8.163 2.577s-12.779-14.626-19.333-25.132c-7.527-12.065-15.681-32.865-15.681-32.865s13.654-14.714 24.918-20.192c12.028-5.85 33.509-7.088 33.509-7.088s8.72 12.63 12.889 21.48c5.788 12.288 10.047 32.667 10.663 35.704l.077-.046s-2.787-20.783-8.163-32.865c-4.569-10.27-15.466-24.273-15.466-24.273l-8.162-2.578s-21.481 1.239-33.51 7.089" fill="#D7BBF5" class="float"/><path d="M330.223 132.73s8.154 20.8 15.68 32.866c6.554 10.506 19.333 25.132 19.333 25.132l8.163 2.577s-12.779-14.626-19.333-25.132c-7.527-12.065-15.681-32.865-15.681-32.865z" fill="#EDE4FF" class="float"/><path d="M344.399 205.12s1.195 3.5 2.578 5.37c.742 1.003.951 2.013 2.148 2.363.644.188 1.117.297 1.719 0 .601-.297.146-.928-.215-1.289s-.839.026-1.289-.214c-.761-.408-.619-1.199-1.074-1.934-.539-.87-.989-1.262-1.503-2.148-.377-.649-.261-1.266-.86-1.718-.487-.369-1.504-.43-1.504-.43m-6.014-.645s1.247 3.559 2.148 5.8c.407 1.012.477 1.665 1.074 2.578.423.647.586 1.181 1.289 1.503.388.179.646.215 1.074.215.427 0 .239-.514.215-.859-.045-.654.173-.76-.215-1.289-.578-.789-.894-.641-1.356-1.503-.567-1.059-1.129-2.356-1.652-3.437-.407-.845-.012-1.455-.644-2.148-.362-.397-1.112-.771-1.933-.86m-4.512-6.014c-.319 1.315-.365 2.086-.429 3.437-.104 2.185.03 3.441.429 5.585.258 1.382.43 2.187 1.075 3.437.416.806.468 1.545 1.288 1.933.313.148.514.215.86.215 0 0-.947-2.844-1.289-4.726-.271-1.495-.526-2.35-.43-3.866.093-1.462.302-2.297.859-3.652.691-1.678 2.578-3.866 2.578-3.866l-3.866-1.504s-.78 1.795-1.075 3.007" fill="#fff" class="float"/><path d="M351.559 127.757a.494.494 0 0 1 .542-.55c1.623.147 2.897.114 4.757-.062 3.809-.359 5.888-1.186 9.452-2.577 1.714-.669 2.656-1.099 4.296-1.933 3.091-1.573 4.735-2.658 7.518-4.726 2.656-1.974 4.368-2.929 6.4-5.47a.485.485 0 0 1 .625-.125c2.645 1.603 2.697 4.364 3.93 6.454 0 0-5.076 1.883-7.948 4.511-3.109 2.845-5.258 3.904-9.236 5.585-3.745 1.582-6.492 2.281-10.526 2.792-3.511.445-7.303 2.578-7.303 2.578-1.34-2.574-2.178-4.092-2.507-6.477" fill="#D7BBF5" class="float"/><path d="M419.797 224.238c.172-.992 0-2.578 0-2.578l15.036 3.867-1.074 3.651s5.628 6.06 6.444 10.955c.43 2.578-.795 8.378-4.511 8.378-6.658 0-9.294-3.013-13.103-7.518-3.399-4.022-6.588-7.392-5.155-12.459.521-1.843 2.035-2.41 2.363-4.296" fill="#EDE4FF" class="float"/><path d="m433.759 229.178 1.074-3.652h-5.37s-1.028 1.931-.859 3.222c.218 1.664 1.209 2.467 2.577 3.437 1.43 1.013 2.858.29 4.297 1.289 1.323.919 1.646 1.907 2.577 3.222.915 1.292 2.148 3.437 2.148 3.437-.816-4.896-6.444-10.955-6.444-10.955" fill="#9479FA" class="float"/><path d="M419.797 224.238c-.328 1.886-1.842 2.453-2.363 4.296-1.433 5.067 1.756 8.437 5.155 12.459 3.809 4.505 6.445 7.518 13.103 7.518 0 0-4.627-1.121-7.088-2.793-2.703-1.835-3.853-3.458-5.585-6.229-1.134-1.814-1.925-2.847-2.363-4.94-.378-1.807-.592-2.978 0-4.726.448-1.323 1.376-1.727 1.933-3.008.52-1.194.86-3.222.86-3.222l-3.652-1.933s.172 1.586 0 2.578" fill="#fff" class="float"/><path d="M351.789 129.079c1.288.429 4.099.626 6.187.429 3.809-.359 6.059-.972 9.623-2.363 1.714-.668 2.656-1.098 4.296-1.933 3.09-1.573 5.164-2.872 7.948-4.94 2.768-2.057 5.971-4.297 7.045-6.445.43.43.892 1.693 1.376 3.437 0 0-3.143 5.32-6.015 7.948-3.11 2.846-5.258 3.904-9.236 5.585-3.745 1.582-6.492 2.282-10.526 2.793-3.511.444-9.022-.86-9.022-.86-.43 0-1.462-2.363-1.676-3.651" fill="#A076F9" class="float"/><path d="M436.981 109.746s1.476-.125 2.363-.429c.995-.341 1.516-.667 2.363-1.289.956-.703 1.302-1.316 2.148-2.148 2.539-2.497 6.659-6.23 6.659-6.23s.799-.356 1.289-.214c.403.116.595.318.859.644.237.291.356.491.43.859.101.5-.094.793-.215 1.289-.545 2.238-3.222 4.844-2.792 5.155l.429.215c.43 0 2.487-2.048 4.296-3.007.896-.475 1.381-.822 2.363-1.074.898-.23 1.583-.715 2.363-.215.509.327.7.705.859 1.289.133.486.058.789 0 1.289-.321 2.77-5.606 4.081-5.155 4.94.141.268.159.509.43.645.429.214 2.113.026 3.436-.215 1.749-.319 2.525-1.356 4.297-1.504.585-.048.947-.189 1.503 0 .621.211 1.155.433 1.289 1.074.108.52-.181.82-.43 1.289-.444.839-.969 1.136-1.718 1.719-1.185.921-2.047 1.153-3.437 1.718-2.018.82-3.462.453-5.37 1.504-.897.493-2.148.479-2.148 1.503 0 1.504 4.289 2.153 4.726 4.726.126.744.441 1.321 0 1.933-.419.582-1.012.528-1.719.645-1.754.29-2.589-1.01-4.296-1.504-1.818-.526-2.844-.871-4.726-1.074-1.751-.189-4.511 0-4.511 0l-.644-10.311z" fill="#EDE4FF" class="float"/><path d="M463.402 109.746c-1.772.148-2.548 1.185-4.296 1.504-.43.215-.431.216-.645.429-.214.214-.489.348-.429.645.059.296.359.328.644.43.651.232 1.072-.183 1.718-.43.526-.201.753-.474 1.289-.645.487-.154.784-.139 1.289-.214.669-.1 1.056-.077 1.719-.215.597-.125 1.637.212 1.503-.43-.133-.641-.668-.863-1.289-1.074-.556-.189-.918-.049-1.503 0m-8.592-5.155c-1.719 1.074-2.793 1.933-2.793 1.933s-.474.397-.215.859c.339.604 1.059.635 1.719.43.515-.228.779-.407 1.289-.644.579-.27.955-.319 1.504-.645.767-.455.964-1.028 1.718-1.503.476-.3.978-.176 1.289-.645.237-.356.995-.574.215-1.074s-1.465-.015-2.363.215c-.982.252-1.503.537-2.363 1.074m-15.466 4.726c-.887.304-1.567-.067-2.363.429-1.954 1.22 2.669 3.602 4.941 3.222 1.262-.211 1.627-1.187 2.792-1.718.652-.298 1.139-.223 1.718-.645.53-.385.857-.67 1.074-1.288.346-.979-.803-1.553-.644-2.578.193-1.244 1.186-1.565 1.933-2.578.678-.918.927-1.541 1.719-2.363.745-.773 2.412-1.392 2.148-1.718-.265-.326-.456-.528-.859-.644-.491-.142-1.289.214-1.289.214s-4.12 3.733-6.659 6.23c-.846.832-1.192 1.445-2.148 2.148-.847.622-1.369.948-2.363 1.289" fill="#fff" class="float"/><path d="M394.616 249.502c.738-1.04 1.964-2.61 1.964-2.61l7.859 1.305 5.046-1.834 3.467-7.519s.837 2.107 1.31 3.48c.464 1.347.874 2.073 1.091 3.48.433 2.802-.137 4.507-1.091 7.178-1.412 3.953-3.382 5.703-6.331 8.7-2.852 2.899-8.295 6.307-8.295 6.307s-5.942 2.854-8.731.87c-1.501-1.068-2.083-2.157-2.62-3.915-.915-2.997.606-4.911 1.747-7.83 1.262-3.231 2.574-4.782 4.584-7.612" fill="#EDE4FF" class="float"/><path d="M414.262 242.324c-.473-1.373-1.31-3.48-1.31-3.48s-4.61 4.495-3.466 7.519c.609 1.609 2.419 1.604 3.007 3.222.898 2.469-.702 4.122-1.933 6.444-.982 1.853-1.818 2.738-3.222 4.296-1.59 1.765-2.307 2.536-3.867 4.081-1.455 1.443-3.834 3.583-3.834 3.583s5.442-3.408 8.295-6.308c2.948-2.996 4.918-4.746 6.33-8.699.954-2.671 1.524-4.376 1.092-7.178-.218-1.407-.628-2.133-1.092-3.48" fill="#9479FA" class="float"/><path d="M394.616 249.502c-2.01 2.83-3.321 4.382-4.584 7.612-1.141 2.919-2.66 4.834-1.746 7.83.536 1.76 1.437 3.329 2.619 3.915-.106-.673-.323-.318-.537-1.66-.213-1.342-.506-2.622-.336-4.296.205-2.021.77-3.098 1.625-4.941.916-1.975 1.385-3.221 2.959-4.725.699-.668 1.169-.957 1.965-1.504 2.773-1.906 8.392-.861 7.858-3.536-.608-3.051-7.858-1.305-7.858-1.305s-1.226 1.57-1.965 2.61" fill="#fff" class="float"/><path d="M352.409 131.154c5.37 0 6.77.051 10.893-.787 4.16-.844 6.492-1.585 10.311-3.436 3.497-1.696 5.419-2.851 8.377-5.371 2.531-2.155 4.511-4.296 5.8-6.229.859 1.074.817 1.565 1.719 2.148.315.204.502.313.859.43 1.54.504 2.294-1.114 3.866-1.504 1.961-.486 3.141-.278 5.156-.43 4.357-.327 6.812-.325 11.17-.644 3.863-.283 6.062-.209 9.881-.859 6.147-1.046 9.023-4.414 15.251-4.726 1.257-.063 1.994-.273 3.222 0 2.727.607 3.714 2.476 5.37 4.726 1.179 1.601 2.046 2.548 2.363 4.511.37 2.29.257 4.07-1.289 5.8-1.736 1.941-4.037.723-6.444 1.718-2.712 1.121-3.634 3.019-6.444 3.866-1.863.562-3.057.158-4.941.645-3.378.872-4.706 2.791-7.948 4.081-2.292.912-3.589 1.479-6.014 1.933-1.74.326-2.745.32-4.511.43-3.349.209-3.652-.859-7.733 0 0 1.074.023 1.463.644 2.363 1.355 1.962 2.401 2.845 3.867 4.726 5.293 6.789 5.966 12.361 12.029 18.473.747.753 1.367 1 1.96 1.879.822 1.218.337 2.343 1.101 3.598 1.251 2.057 2.938 2.383 5.061 3.518 1.575.841 2.679.869 4.202 1.799 1.821 1.111 2.59 2.1 4.109 3.598 1.257 1.24 1.808 2.084 3.061 3.329 1.759 1.75 3.27 2.219 4.779 4.189 1.323 1.728 1.947 2.858 2.578 4.941.516 1.703.739 2.734.644 4.511-.112 2.094-.924 3.139-1.504 5.155-1.298 4.518-1.621 7.179-3.222 11.599-1.597 4.413-3.597 6.459-4.94 10.956-.641 2.144.287 3.995-1.289 5.584-1.42 1.433-2.924 1.467-4.941 1.504-1.993.037-3.159-.391-4.94-1.289-1.237-.623-1.957-1.027-2.9-2.04-1.138-1.223-2.701-2.101-2.9-3.759-.644-5.371.33-7.218 1.504-11.6.58-2.167 1.942-3.129 2.04-5.37.079-1.8-.182-2.889-.966-4.511-4.082-2.363-6.444-2.363-14.177-3.867-.43 0-1.719 0-2.578 4.082-.43 2.792.334 5.532 1.289 9.236.883 3.429 1.132 5.416 2.148 8.807 1.364 4.552 2.701 6.909 4.296 11.385.775 2.174 1.611 3.3 1.933 5.585.234 1.661.276 2.641 0 4.296-.493 2.961-1.198 4.805-3.007 7.304-.94 1.298-1.369 2.27-2.792 3.007-1.572.813-2.742.393-4.511.429-1.68.035-2.646.099-4.297-.214-1.381-.263-2.276-.281-3.436-1.074-1.082-.74-1.372-1.523-2.148-2.578-2.425-3.294-3.333-5.609-4.941-9.451-2.06-4.922-2.71-7.895-3.866-13.104-.482-2.168-.594-3.416-1.075-5.585-.942-4.252-.515-5.185-2.577-9.021-1.196-2.225-3.202-4.657-4.189-6.982-.951-2.241-.536-3.937-1.611-6.122-1.388-2.821-1.289 0-4.511-6.444-2.89-5.779-6.444-8.163-8.162-14.392-.298-1.079-.414-1.697-.645-2.792-.282-1.336-.379-2.098-.644-3.437-.735-3.713-1.074-7.948-2.148-9.452-.417-.044-.656-.021-1.074 0-3.437.175-.588 12.864-3.867 20.192-.613 1.37-1.317 1.991-1.718 3.437-.562 2.021.441 3.32 0 5.37-.49 2.274-1.043 3.622-2.578 5.37-1.351 1.539-2.349 2.373-4.296 3.008-2.074.676-3.414.21-5.585 0-1.867-.181-3.105.084-4.726-.86-1.385-.806-2.179-1.526-2.792-3.007-.674-1.627.189-2.759 0-4.511-.176-1.619-.601-2.473-.859-4.081-.228-1.418-.624-2.229-.43-3.652.144-1.051.612-1.546.859-2.577.374-1.559.395-2.479.43-4.082.044-2.02-.53-3.137-.43-5.155.063-1.268.266-1.963.43-3.222.447-3.436.101-5.482 1.074-8.807.35-1.197.536-1.882 1.074-3.007.552-1.156 1.008-1.728 1.718-2.793.866-1.298 1.509-1.916 2.363-3.222 1.849-2.825 2.081-4.867 3.867-7.733.861-1.382 1.303-2.2 2.362-3.437 1.824-2.129 2.864-3.838 5.585-4.511.496-.122.913.13 1.289-.215.437-.401-.099-1.005.062-1.576" fill="#D7BBF5" class="float"/><path d="M419.824 164.898c-.593-.879-1.213-1.127-1.96-1.88-6.063-6.112-6.736-11.684-12.029-18.473-1.466-1.881-2.512-2.764-3.867-4.726-.621-.9-.644-2.363-.644-2.363s-2.151-.459-3.223-1.289c-2.398-1.855-1.504-7.518-1.933-7.518-4.568.001.673 7.108 1.504 11.6.5 2.702.702 4.245 1.504 6.873 1.434 4.702 2.69 7.264 5.37 11.385 3.077 4.73 4.732 8.003 9.666 10.74 4.13 2.292 13.897 3.901 11.774 2.766-2.122-1.135-3.81-1.461-5.061-3.517-.764-1.256-.279-2.381-1.101-3.598" fill="#D7BBF5" class="float"/><path d="M401.323 137.456c4.081-.859 4.384.209 7.733 0 3.349-.208-3.642-.851-5.585-2.148-1.432-.955-2.079-1.721-3.223-3.007-1.237-1.392-4.081-3.652-4.081-3.652s-.088 2.405.215 3.652c.351 1.444.199 2.56 1.289 3.651 1.035 1.037 3.652 1.504 3.652 1.504" fill="url(#paint0_linear_294_1114)" class="float"/><path d="M407.123 196.743c7.733 1.503 10.096 1.503 14.177 3.866.784 1.622 1.046 2.711.967 4.511-.098 2.241-1.46 3.203-2.041 5.37-1.174 4.383-2.148 6.229-1.503 11.6.199 1.658 1.762 2.536 2.899 3.759s1.585-.876 1.611-1.826c.028-.983-1.124-1.079-1.611-1.933-1.007-1.768-.891-3.126-.751-5.156.183-2.674 1.511-3.902 2.362-6.444 1.029-3.07 2.905-4.755 2.363-7.948-.44-2.595-1.449-4.073-3.437-5.799-2.463-2.14-4.686-2.693-7.947-2.578-2.944.103-6.445 1.074-7.089 2.578" fill="#D7BBF5" class="float"/><path d="m374.675 146.693.859-.644s.298 3.403.215 5.584c-.084 2.194-.022 3.48-.645 5.585-.82 2.774-2.513 3.786-3.651 6.445-.7 1.633-1.504 4.296-1.504 4.296s-1.344-5.67-.645-7.304c1.139-2.659 2.832-3.67 3.652-6.444.623-2.105.561-3.391.645-5.585z" fill="#EDE4FF" class="float"/><path d="M352.347 132.73c-.376.345-.793.093-1.289.215-2.721.673-3.761 2.382-5.585 4.511-1.059 1.237-1.501 2.055-2.362 3.437-1.786 2.866-2.018 4.908-3.867 7.733-.854 1.306-1.497 1.924-2.363 3.222-.71 1.065-1.166 1.637-1.718 2.793-.538 1.125-.724 1.81-1.074 3.007-.973 3.325-.627 5.371-1.074 8.807-.164 1.259-.367 1.954-.43 3.222-.1 2.018.474 3.135.43 5.155-.035 1.603-.056 2.523-.43 4.082-.247 1.031-.715 1.526-.859 2.577-.194 1.423.202 2.234.43 3.652.258 1.608.683 2.462.859 4.081.189 1.752-.674 2.884 0 4.511.613 1.481 1.407 2.201 2.792 3.007 1.621.944 2.859.679 4.726.86s.307-8.548 1.074-13.963c.965-6.81 1.992-10.566 3.866-17.184 1.837-6.483 2.993-10.106 5.585-16.325 2.93-7.03 15.838-14.472 8.807-17.4zm47.257 117.929c1.651.313 4.296.214 4.296.214 4.273-1.466-2.719-6.506-4.296-10.74-1.425-3.829-2.261-5.968-3.437-9.881-.948-3.157-.638-5.232-2.148-8.163-1.206-2.341-2.846-3.043-4.081-5.37-2.167-4.083-1.936-6.996-2.363-11.599-.364-3.926 0-6.153 0-10.096 0-3.104.268-4.856 0-7.948-.227-2.624.666-4.681-1.074-6.659-1.389-1.58-2.84-15.518-4.94-15.635-2.412-.134-3.856.715-5.8 2.148-3.415 2.517-7.733 16.924-4.511 23.368s3.123 3.623 4.511 6.444c1.075 2.185.66 3.881 1.611 6.122.987 2.325 2.993 4.757 4.189 6.981 2.062 3.837 1.635 4.77 2.577 9.022.481 2.169.593 3.417 1.074 5.585l.034.151c1.135 5.116 1.793 8.078 3.833 12.952 1.608 3.842 2.44 6.121 4.94 9.452.787 1.048 1.067 1.838 2.148 2.578 1.161.793 2.056.811 3.437 1.074" fill="#9479FA" class="float"/><path d="m376.785 131.882.731-.451s3.853 4.898 6.017 8.247c4.039 6.251 5 10.493 8.593 17.011 1.945 3.529 3.217 5.405 5.156 8.936 2.846 5.182 5.185 7.823 6.874 13.49 1.517 5.089 1.719 13.489 1.719 13.489l-.731.452s-.202-8.4-1.719-13.49c-1.689-5.666-4.028-8.307-6.874-13.489-1.939-3.532-3.211-5.408-5.156-8.936-3.593-6.518-4.554-10.76-8.593-17.012-2.164-3.348-6.017-8.247-6.017-8.247" fill="url(#paint1_linear_294_1114)" class="float"/><path d="M389.08 117.264s.647.41 1.074.559c.859.301.825.171 1.288.086.86-.215 1.24-.927 2.148-1.289.568-.226.906-.305 1.504-.43 1.071-.224 1.701-.144 2.793-.215 2.01-.129 3.142-.124 5.155-.214 1.762-.079 2.75-.113 4.511-.215 2.351-.136 3.664-.28 6.014-.43 1.426-.09 3.652-.215 3.652-.215.391.405.475.753.645 1.289.678 2.155-.534 3.791-2.149 5.37-1.821 1.781-3.698 1.642-6.229 1.934-3.277.377-5.096-.738-8.377-1.074-5.935-.609-15.252-.86-15.252-.86l1.934-2.148z" fill="#9479FA" class="float"/><path d="M352.563 132.301s13.225.728 20.943-2.363c7.429-2.976 15.702-12.674 15.702-12.674.192.152.305.23.516.357 0 0-8.374 9.855-15.681 12.961-7.92 3.367-21.695 2.148-21.695 2.148.153-.142.184-.239.215-.429" fill="url(#paint2_linear_294_1114)" class="float"/><path d="M352.563 132.301s13.225.728 20.943-2.363c7.429-2.976 15.702-12.674 15.702-12.674.192.152.305.23.516.357 0 0-8.374 9.855-15.681 12.961-7.92 3.367-21.695 2.148-21.695 2.148.153-.142.184-.239.215-.429" fill="#A076F9" class="float"/><path d="M357.933 146.049h.429s1.876 4.62 1.933 7.733c.048 2.54-1.074 6.418-1.074 6.418-.416.014-.246.013-.429.013 0 0 1.155-4.018 1.074-6.646-.094-3.03-1.933-7.518-1.933-7.518" fill="url(#paint3_linear_294_1114)" class="float"/><path d="M325.492 91.53c.596-2.812 1.289-4.357 2.756-6.874 1.383-2.372 2.431-3.579 4.365-5.585 2.731-2.832 4.575-4.22 8.041-6.23 3.344-1.938 5.443-2.74 9.189-3.866 4.087-1.229 6.508-1.773 10.798-1.933 3.417-.128 5.375.021 8.729.644 2.007.373 3.169.548 5.055 1.29 1.815.713 2.793 1.252 4.364 2.362 4.012 2.833 5.109 5.674 7.352 9.881 1.167 2.19 1.682 3.485 2.527 5.8.872 2.388 1.412 3.737 1.838 6.23.609 3.561 1.005 5.753 0 9.236-.815 2.825-1.868 4.27-3.676 6.659-1.614 2.133-2.693 3.251-4.824 4.94-2.641 2.094-4.536 2.757-7.581 4.297-3.743 1.892-5.829 3.077-9.879 4.296-5.858 1.763-9.616 3.19-15.622 1.933-3.138-.657-4.856-1.41-7.581-3.007-2.161-1.267-3.224-2.206-5.054-3.867-3.877-3.518-5.86-5.904-8.041-10.525-2.679-5.678-4.048-9.594-2.756-15.681" fill="#A076F9" class="float"/><path d="m329.326 104.418 10.525 17.184s-3.167.157-4.94-.644c-2.001-.904-2.794-2.088-4.082-3.866-1.254-1.733-1.829-2.87-2.363-4.941-.69-2.681.86-7.733.86-7.733" fill="#EDE4FF" class="float"/><path d="M384.139 82.68s4.372 1.531 5.547 2.406c1.001.744 1.457 1.325 2.148 2.363 1.088 1.634 1.432 2.783 1.719 4.725.208 1.411.208 2.241 0 3.652-.287 1.943-3.867 7.906-3.867 7.906z" fill="#A076F9" class="float"/><g filter="url(#filter0_f_294_1114)"><path d="m388.397 87.05.955-.675s.934 1.479 1.431 2.475c.678 1.359.988 2.158 1.431 3.6.214.697.586 1.083.478 1.8-.106.702-.955 1.576-.955 1.576s-.484-2.22-.954-3.6c-.714-2.1-2.386-5.176-2.386-5.176" fill="#D7BBF5" class="float"/></g><path d="M328.896 94.967c.558-2.812 1.206-4.357 2.578-6.874 1.292-2.372 2.272-3.579 4.081-5.585 2.553-2.832 4.278-4.22 7.518-6.23 3.128-1.938 5.09-2.74 8.592-3.866 3.822-1.229 6.085-1.773 10.096-1.933 3.195-.128 5.027.021 8.163.644 1.876.373 2.962.548 4.726 1.29 1.697.713 2.611 1.252 4.081 2.362 3.751 2.833 4.777 5.674 6.874 9.881 1.091 2.189 1.573 3.485 2.363 5.8.815 2.388 1.32 3.737 1.718 6.23.569 3.561.94 5.753 0 9.236-.762 2.825-1.747 4.27-3.437 6.659-1.509 2.133-2.518 3.251-4.511 4.94-2.469 2.094-4.241 2.757-7.088 4.296-3.5 1.893-5.45 3.078-9.237 4.297-5.477 1.762-8.992 3.189-14.607 1.933-2.934-.657-4.541-1.41-7.088-3.008-2.021-1.266-3.015-2.205-4.726-3.866-3.625-3.518-5.479-5.904-7.518-10.525-2.505-5.678-3.786-9.594-2.578-15.681" fill="#fff" class="float"/><path d="M337.059 98.833c1.933-3.222 2.694-4.326 4.941-6.659 2.572-2.67 4.343-3.883 7.518-5.8 3.085-1.862 4.991-2.635 8.377-3.866 4.726-1.718 7.089-2.148 10.955-2.148 2.733 0 4.564 1.7 6.23 3.867 2.148 2.792 2.634 3.432 4.296 6.658 1.326 2.576 2.792 6.874 2.792 6.874s1.009 3.651 0 5.585c-2.577 4.941-7.152 8.895-13.318 12.459-6.434 3.719-8.377 5.155-18.258 4.726-4.726-1.074-11.95-8.036-13.533-16.326-.332-1.738-.91-3.852 0-5.37" fill="#A076F9" class="float"/><path d="M346.296 88.308c3.112-2.32 5.24-3.41 8.807-4.94 3.463-1.486 5.497-2.33 9.237-2.793 1.334-.165 3.436-.215 3.436-.215s-7.99 8.365-10.74 15.037c-3.033 7.359-2.792 20.191-2.792 20.191l-9.022.86s-7.992-13.718-6.659-19.333c.429-1.81 1.647-3.196 3.222-4.94 1.549-1.716 2.658-2.486 4.511-3.867" fill="url(#paint4_linear_294_1114)" class="float"/><path fill-rule="evenodd" clip-rule="evenodd" d="M341.343 91.82c-2.33 2.431-3.12 3.583-5.125 6.943-.84 1.407-.458 3.306-.121 4.984q.063.314.121.615c1.642 8.644 9.136 15.903 14.038 17.023 9.762.426 12.054-.912 18.017-4.391l.923-.537c6.396-3.716 11.141-7.839 13.814-12.991 1.047-2.016 0-5.823 0-5.823s-1.52-4.482-2.896-7.168c-1.724-3.364-2.228-4.031-4.456-6.943-1.729-2.258-3.628-4.031-6.462-4.031-4.011 0-6.462.447-11.364 2.24-3.513 1.283-5.49 2.09-8.69 4.031-3.293 1.998-5.131 3.263-7.799 6.047m.656.354c-2.246 2.332-3.007 3.437-4.94 6.66-.809 1.348-.442 3.169-.117 4.778l.117.591c1.583 8.29 8.807 15.251 13.533 16.325 9.41.41 11.621-.873 17.369-4.21l.889-.515c6.166-3.564 10.74-7.518 13.318-12.459 1.009-1.934 0-5.585 0-5.585s-1.466-4.298-2.792-6.874c-1.662-3.227-2.149-3.866-4.297-6.659-1.666-2.166-3.496-3.866-6.229-3.866-3.866 0-6.229.43-10.955 2.148-3.386 1.231-5.293 2.004-8.377 3.866-3.175 1.917-4.946 3.13-7.519 5.8" fill="#fff" class="float"/><path d="M434.162 201.053c1.807-1.703 3.826-5.17 3.826-5.17s-.425 1.345-.765 2.177c-.785 1.921-1.494 2.817-3.061 4.081-1.562 1.259-4.337 1.905-4.337 1.905s2.825-1.568 4.337-2.993" fill="#D7BBF5" class="float"/><path d="M249.097 8.947c.915-2.816 4.899-2.816 5.814 0a3.06 3.06 0 0 0 2.907 2.112c2.961 0 4.193 3.789 1.797 5.53a3.06 3.06 0 0 0-1.11 3.417c.915 2.816-2.308 5.157-4.704 3.417a3.06 3.06 0 0 0-3.593 0c-2.396 1.74-5.619-.601-4.704-3.417a3.06 3.06 0 0 0-1.11-3.418c-2.396-1.74-1.164-5.53 1.796-5.53a3.06 3.06 0 0 0 2.907-2.111m48.195 302.176c.229-.704 1.225-.704 1.453 0a.77.77 0 0 0 .727.528c.74 0 1.048.947.449 1.382a.76.76 0 0 0-.277.854c.228.704-.577 1.29-1.176.855a.76.76 0 0 0-.898 0c-.599.435-1.405-.151-1.176-.855a.76.76 0 0 0-.278-.854c-.599-.435-.291-1.382.449-1.382a.765.765 0 0 0 .727-.528m267.982-25.886c.229-.704 1.225-.704 1.454 0a.76.76 0 0 0 .727.528c.74 0 1.048.947.449 1.382a.765.765 0 0 0-.278.854c.229.704-.577 1.29-1.176.855a.76.76 0 0 0-.898 0c-.599.435-1.405-.151-1.176-.855a.765.765 0 0 0-.278-.854c-.598-.435-.291-1.382.45-1.382a.76.76 0 0 0 .726-.528" fill="#EDE4FF" class="float"/><path d="M545.071 25.597c.572-1.76 3.062-1.76 3.633 0 .256.787.99 1.32 1.817 1.32 1.851 0 2.62 2.368 1.123 3.456a1.91 1.91 0 0 0-.694 2.136c.572 1.76-1.442 3.224-2.94 2.136a1.91 1.91 0 0 0-2.245 0c-1.498 1.088-3.512-.376-2.94-2.136a1.91 1.91 0 0 0-.694-2.136c-1.497-1.088-.728-3.456 1.123-3.456.827 0 1.561-.533 1.817-1.32" fill="#fff" class="float"/><path d="M370.442 47.392c.755-2.323 4.042-2.323 4.797 0a2.52 2.52 0 0 0 2.398 1.743c2.443 0 3.458 3.126 1.482 4.562a2.52 2.52 0 0 0-.916 2.819c.755 2.323-1.904 4.255-3.88 2.82a2.52 2.52 0 0 0-2.965 0c-1.976 1.435-4.635-.497-3.88-2.82a2.52 2.52 0 0 0-.916-2.82c-1.977-1.435-.961-4.561 1.482-4.561a2.52 2.52 0 0 0 2.398-1.743m128.197 274.929c.514-1.584 2.755-1.584 3.27 0a1.72 1.72 0 0 0 1.635 1.188c1.666 0 2.358 2.131 1.011 3.11a1.72 1.72 0 0 0-.625 1.922c.515 1.584-1.298 2.902-2.645 1.923a1.72 1.72 0 0 0-2.022 0c-1.347.979-3.16-.339-2.645-1.923a1.72 1.72 0 0 0-.625-1.922c-1.347-.979-.655-3.11 1.011-3.11a1.72 1.72 0 0 0 1.635-1.188M247.297 155.758c.789-2.429 4.225-2.429 5.014 0a2.64 2.64 0 0 0 2.507 1.821c2.554 0 3.616 3.268 1.55 4.77a2.64 2.64 0 0 0-.958 2.947c.789 2.429-1.99 4.449-4.057 2.948a2.63 2.63 0 0 0-3.099 0c-2.066 1.501-4.846-.519-4.057-2.948a2.635 2.635 0 0 0-.957-2.947c-2.066-1.502-1.005-4.77 1.549-4.77a2.64 2.64 0 0 0 2.508-1.821m312 27.959c.789-2.429 4.225-2.429 5.014 0a2.64 2.64 0 0 0 2.507 1.821c2.554 0 3.616 3.268 1.55 4.769a2.64 2.64 0 0 0-.958 2.948c.789 2.429-1.99 4.448-4.057 2.947a2.64 2.64 0 0 0-3.099 0c-2.066 1.501-4.846-.518-4.057-2.947a2.64 2.64 0 0 0-.957-2.948c-2.066-1.501-1.005-4.769 1.549-4.769a2.64 2.64 0 0 0 2.508-1.821m109 56c.789-2.429 4.225-2.429 5.014 0a2.64 2.64 0 0 0 2.507 1.821c2.554 0 3.616 3.268 1.55 4.769a2.64 2.64 0 0 0-.958 2.948c.789 2.429-1.99 4.448-4.057 2.947a2.64 2.64 0 0 0-3.099 0c-2.066 1.501-4.846-.518-4.057-2.947a2.64 2.64 0 0 0-.957-2.948c-2.066-1.501-1.005-4.769 1.549-4.769a2.64 2.64 0 0 0 2.508-1.821" fill="#EDE4FF" class="float"/><path d="M475 52a6 6 0 0 1 6-6h113a6 6 0 0 1 6 6v28a6 6 0 0 1-6 6H475z" fill="#fff" class="float"/><path d="M488.574 73a.76.76 0 0 1-.558-.216.76.76 0 0 1-.216-.558v-12.51q0-.342.216-.558a.76.76 0 0 1 .558-.216q.342 0 .558.216t.216.558v5.472h8.658v-5.472q0-.342.216-.558a.76.76 0 0 1 .558-.216q.324 0 .54.216t.216.558v12.51a.76.76 0 0 1-.216.558.73.73 0 0 1-.54.216.76.76 0 0 1-.558-.216.76.76 0 0 1-.216-.558v-5.652h-8.658v5.652a.76.76 0 0 1-.216.558.76.76 0 0 1-.558.216m15.4 0a.8.8 0 0 1-.558-.198q-.216-.216-.216-.576v-8.298q0-.36.216-.558a.76.76 0 0 1 .558-.216q.342 0 .54.216.216.198.216.558v8.298q0 .36-.216.576-.198.198-.54.198m-.018-11.628q-.432 0-.738-.306a1.07 1.07 0 0 1-.306-.756q0-.45.306-.738a1.08 1.08 0 0 1 .738-.288q.414 0 .72.288a.94.94 0 0 1 .324.738q0 .432-.306.756-.306.306-.738.306m4.104 14.598q-.198 0-.306-.108a.4.4 0 0 1-.09-.27q0-.306.162-.54.18-.234.36-.504.198-.27.198-.648a.95.95 0 0 0-.144-.54 1.7 1.7 0 0 0-.306-.36 3.5 3.5 0 0 1-.306-.396 1 1 0 0 1-.126-.522q0-.468.306-.738.306-.288.792-.288.576 0 .918.432.36.432.36 1.206 0 .522-.162 1.098a5.3 5.3 0 0 1-.432 1.08q-.27.504-.594.792-.324.306-.63.306M521.441 73a3.15 3.15 0 0 1-1.674-.45 3.24 3.24 0 0 1-1.17-1.242q-.414-.792-.414-1.782v-8.748q0-.324.198-.54a.76.76 0 0 1 .558-.216q.324 0 .54.216a.73.73 0 0 1 .216.54v8.748q0 .846.486 1.404.504.558 1.26.558h.54q.288 0 .486.216a.77.77 0 0 1 .198.54.7.7 0 0 1-.252.558q-.234.198-.612.198zm-4.32-8.172a.72.72 0 0 1-.504-.18.64.64 0 0 1-.198-.468q0-.288.198-.468a.68.68 0 0 1 .504-.198h4.446q.306 0 .504.198.198.18.198.468a.64.64 0 0 1-.198.468.72.72 0 0 1-.504.18zm8.574 4.284q-.36 0-.576-.216a.77.77 0 0 1-.198-.54v-8.64q0-.36.198-.558.216-.216.576-.216.342 0 .54.216.216.198.216.558v8.64a.73.73 0 0 1-.216.54q-.198.216-.54.216M533.327 73a.76.76 0 0 1-.558-.216.73.73 0 0 1-.216-.54v-4.59q0-1.098-.414-1.782a2.5 2.5 0 0 0-1.098-1.044q-.702-.36-1.602-.36-.846 0-1.53.342a2.7 2.7 0 0 0-1.062.9 2.2 2.2 0 0 0-.396 1.296h-1.044q.036-1.134.594-2.016a4.15 4.15 0 0 1 1.53-1.422 4.35 4.35 0 0 1 2.124-.522q1.26 0 2.25.54 1.008.522 1.584 1.548.594 1.026.594 2.52v4.59a.73.73 0 0 1-.216.54.73.73 0 0 1-.54.216m-7.632 0q-.36 0-.576-.198a.8.8 0 0 1-.198-.558v-8.316q0-.36.198-.558.216-.216.576-.216.342 0 .54.216.216.198.216.558v8.316a.76.76 0 0 1-.216.558q-.198.198-.54.198m15.961.09q-1.476 0-2.61-.63a4.7 4.7 0 0 1-1.782-1.782q-.648-1.134-.648-2.592 0-1.476.612-2.592a4.6 4.6 0 0 1 1.674-1.782q1.08-.648 2.484-.648 1.368 0 2.376.63a4 4 0 0 1 1.566 1.71q.558 1.098.558 2.502a.68.68 0 0 1-.198.504.72.72 0 0 1-.504.18h-7.524v-1.242h7.614l-.774.54q.018-.99-.36-1.782a2.95 2.95 0 0 0-1.08-1.242q-.702-.45-1.674-.45-1.026 0-1.8.468-.756.468-1.17 1.314-.396.828-.396 1.89t.468 1.89a3.4 3.4 0 0 0 1.278 1.296q.828.468 1.89.468.612 0 1.242-.216.648-.216 1.026-.54a.8.8 0 0 1 .486-.162.6.6 0 0 1 .468.144q.27.234.27.504.018.27-.234.468-.594.504-1.512.828a5.3 5.3 0 0 1-1.746.324m7.239-6.192q.036-1.098.558-1.962a4 4 0 0 1 1.404-1.386 3.8 3.8 0 0 1 1.926-.504q.918 0 1.386.27.486.27.36.738a.52.52 0 0 1-.234.36.7.7 0 0 1-.396.108q-.216 0-.504-.036-1.062-.126-1.89.144-.81.252-1.296.846t-.486 1.422zm.09 6.102q-.36 0-.558-.198t-.198-.558V63.91q0-.36.198-.558t.558-.198.54.198q.198.198.198.558v8.334q0 .36-.198.558-.18.198-.54.198m11.444.09q-1.476 0-2.61-.63a4.7 4.7 0 0 1-1.782-1.782q-.648-1.134-.648-2.592 0-1.476.612-2.592a4.6 4.6 0 0 1 1.674-1.782q1.08-.648 2.484-.648 1.368 0 2.376.63a4 4 0 0 1 1.566 1.71q.558 1.098.558 2.502a.68.68 0 0 1-.198.504.72.72 0 0 1-.504.18h-7.524v-1.242h7.614l-.774.54q.018-.99-.36-1.782a2.95 2.95 0 0 0-1.08-1.242q-.702-.45-1.674-.45-1.026 0-1.8.468-.756.468-1.17 1.314-.396.828-.396 1.89t.468 1.89a3.4 3.4 0 0 0 1.278 1.296q.828.468 1.89.468.612 0 1.242-.216.648-.216 1.026-.54a.8.8 0 0 1 .486-.162.6.6 0 0 1 .468.144q.27.234.27.504.018.27-.234.468-.594.504-1.512.828a5.3 5.3 0 0 1-1.746.324m6.952-3.312a.77.77 0 0 1-.756-.774v-9.288q0-.342.216-.558a.74.74 0 0 1 .54-.234q.342 0 .558.234.216.216.216.558v9.288a.74.74 0 0 1-.234.54.74.74 0 0 1-.54.234m0 3.222q-.45 0-.774-.324a1.06 1.06 0 0 1-.324-.774q0-.486.324-.81t.774-.324q.468 0 .792.342.324.324.324.792 0 .45-.324.774t-.792.324m2.924 1.26h18v-18h-18z" fill="#6C6C6C" class="float"/><path d="M240.984 293.402c8.926-7.32 9.754-18 9.052-22.425l-12.312 8.633zm-33.528-41.11c9.96-8.022 19.713-6.227 23.345-4.327l-10.459 10.224z" fill="#9479FA" class="float"/><path d="M219.408 259.506c7.552-11.315 24.084-19.933 31.406-22.828 2.05-.4 15.16 9.339 14.372 17.303-5.421 12.129-24.876 23.875-28.754 26.507-3.103 2.106-4.916.922-5.435.066-3.402-4.223-10.601-13.15-12.179-15.075-1.974-2.407-1.239-3.741.59-5.973" fill="#D7BBF5" class="float"/><path d="M219.426 259.319c7.551-11.315 24.084-19.933 31.406-22.828 2.05-.4 15.159 9.339 14.372 17.302-5.421 12.129-24.876 23.876-28.755 26.508-3.103 2.106-4.916.921-5.434.066-3.402-4.223-10.601-13.15-12.18-15.075-1.973-2.407-1.238-3.741.591-5.973" fill="#D7BBF5" class="float"/><path d="M236.492 279.875c-4.998-25.905 10.786-37.934 19.303-40.71-.717-.875-3.605-2.166-4.959-2.702-13.711 4.474-25.323 16.192-30.274 21.533-3.96 4.272-2.693 6.904-1.564 7.685l11.123 13.564c2.584 3.15 5.324 1.732 6.371.63" fill="#fff" fill-opacity=".7" class="float"/><path d="M199.662 296.553c-7.752 1.144-1.777-11.835 2.964-19.81 5.305-8.924 19.619-7.307 20.589 5.252s-14.576 13.235-23.553 14.558" fill="#EDE4FF" class="float"/><path d="M205.29 291.394c-5.66.878-1.27-8.901 2.207-14.912 3.892-6.726 14.334-5.542 15.014 3.905.679 9.448-10.668 9.991-17.221 11.007" fill="#9479FA" class="float"/><circle cx="247.25" cy="254.415" r="8.202" transform="rotate(95.646 247.25 254.415)" fill="#fff" fill-opacity=".7" class="float"/><circle cx="247.43" cy="254.636" r="6.002" transform="rotate(95.646 247.43 254.636)" fill="#fff" fill-opacity=".7" class="float"/><path d="M265.245 253.384c-2.989-10.427-10.335-15.429-13.814-16.845 1.691-.838 9.055-2.12 15.586-1.073 5.224.839 1.208 12.182-1.772 17.918" fill="#9479FA" class="float"/><rect x="209.729" y="298.843" width="6.227" height="55.346" rx="3.114" transform="rotate(50.354 209.729 298.843)" fill="#9479FA" class="float"/><rect x="190.456" y="273.532" width="6.227" height="55.346" rx="3.114" transform="rotate(50.354 190.456 273.532)" fill="#9479FA" class="float"/><rect x="189.366" y="296.742" width="6.227" height="55.346" rx="3.114" transform="rotate(50.354 189.366 296.742)" fill="#9479FA" class="float"/><path d="M645 300a6 6 0 0 1 6-6h123v33a6 6 0 0 1-6 6H651a6 6 0 0 1-6-6z" fill="#6528F7" class="float"/><path d="M656.125 318v-8.566h1.406V318zm4.676-8.566-.235 3.093h-.884l-.229-3.093zm9.099 1.957q1.09 0 1.641.562.557.563.557 1.805V318h-1.377v-3.996q0-.738-.287-1.113-.288-.375-.873-.375-.82 0-1.184.527-.357.521-.357 1.518V318h-1.377v-3.996q0-.492-.129-.82a.96.96 0 0 0-.381-.498q-.258-.17-.651-.17-.567 0-.908.257-.334.258-.48.762-.147.498-.147 1.225V318h-1.377v-6.486h1.073l.193.873h.076q.2-.34.492-.557.3-.223.662-.328a2.6 2.6 0 0 1 .756-.111q.727 0 1.225.257.498.252.744.774h.105q.306-.527.85-.779a2.7 2.7 0 0 1 1.154-.252m8.62 6.609h-1.383v-9.117h1.383zm7.71-3.258q0 .809-.21 1.436a2.9 2.9 0 0 1-.616 1.06 2.7 2.7 0 0 1-.972.657 3.5 3.5 0 0 1-1.284.222q-.668 0-1.224-.222a2.8 2.8 0 0 1-.967-.657 3 3 0 0 1-.627-1.06 4.3 4.3 0 0 1-.223-1.436q0-1.072.37-1.816.375-.75 1.066-1.143t1.646-.392q.897 0 1.582.392a2.7 2.7 0 0 1 1.073 1.143q.387.75.386 1.816m-4.705 0q0 .71.17 1.213.176.504.539.774.364.263.938.263t.937-.263q.364-.27.534-.774t.169-1.213-.169-1.201q-.17-.498-.534-.756-.363-.264-.943-.264-.855 0-1.248.575-.393.574-.393 1.646m12.03 0q0 .809-.211 1.436a2.9 2.9 0 0 1-.615 1.06q-.405.428-.973.657a3.5 3.5 0 0 1-1.283.222q-.669 0-1.225-.222a2.8 2.8 0 0 1-.967-.657 3 3 0 0 1-.627-1.06 4.3 4.3 0 0 1-.222-1.436q0-1.072.369-1.816.375-.75 1.066-1.143t1.647-.392q.896 0 1.582.392.685.393 1.072 1.143t.387 1.816m-4.705 0q0 .71.17 1.213.175.504.539.774.363.263.937.263t.938-.263q.363-.27.533-.774t.17-1.213-.17-1.201q-.17-.498-.533-.756-.364-.264-.944-.264-.855 0-1.248.575-.392.574-.392 1.646m7.664-5.859v4.406q0 .299-.024.656-.023.352-.047.662h.03q.151-.204.363-.48.216-.276.41-.481l1.981-2.132h1.582l-2.596 2.789 2.766 3.697h-1.618l-2.074-2.848-.773.662V318h-1.377v-9.117zm6.879 2.631V318h-1.377v-6.486zm-.68-2.485a.9.9 0 0 1 .545.17q.234.17.234.586 0 .41-.234.586a.9.9 0 0 1-.545.17.9.9 0 0 1-.557-.17q-.222-.175-.222-.586 0-.416.222-.586a.9.9 0 0 1 .557-.17m6.035 2.362q1.096 0 1.705.568.615.563.615 1.811V318h-1.377v-3.973q0-.756-.31-1.131-.31-.38-.961-.38-.943 0-1.313.58-.363.58-.363 1.681V318h-1.377v-6.486h1.072l.194.879h.076q.211-.34.521-.557.317-.222.704-.334.392-.111.814-.111m6.1 9.492q-1.319 0-2.022-.475t-.703-1.33q0-.597.375-1.014.375-.41 1.072-.568a1.2 1.2 0 0 1-.457-.363.9.9 0 0 1-.187-.557q0-.363.205-.621t.615-.498a1.8 1.8 0 0 1-.82-.703q-.305-.492-.305-1.154 0-.704.299-1.196.298-.498.873-.756.575-.263 1.389-.263.176 0 .38.023.212.018.387.047.182.024.276.053h2.244v.767l-1.102.205q.159.224.252.51.094.282.094.615 0 1.009-.697 1.588-.692.575-1.911.575a7 7 0 0 1-.568-.047 1.05 1.05 0 0 0-.322.287.57.57 0 0 0-.111.346q0 .158.111.257.11.095.328.141.222.047.539.047h1.119q1.067 0 1.629.451t.563 1.324q0 1.108-.914 1.705-.915.604-2.631.604m.052-.967q.721 0 1.213-.141t.744-.404a.85.85 0 0 0 .252-.615q0-.317-.158-.486-.158-.17-.474-.235a4 4 0 0 0-.786-.064h-1.019q-.381 0-.674.117a1.05 1.05 0 0 0-.457.351.95.95 0 0 0-.158.551q0 .446.392.686.399.24 1.125.24m.27-5.051q.603 0 .896-.328.293-.334.293-.937 0-.657-.304-.985-.3-.328-.891-.328-.58 0-.885.334-.299.334-.299.99 0 .592.299.926.304.328.891.328m10.84-2.303h-1.576V318h-1.377v-5.438h-1.061v-.662l1.061-.404v-.451q0-.826.257-1.313.264-.486.75-.697.493-.216 1.172-.217.446 0 .815.077.369.07.621.164l-.358 1.043a5 5 0 0 0-.445-.118 2.3 2.3 0 0 0-.527-.058q-.469 0-.692.293-.216.292-.216.855v.44h1.576zm6.849 2.18q0 .809-.211 1.436-.21.627-.615 1.06a2.7 2.7 0 0 1-.972.657 3.5 3.5 0 0 1-1.284.222q-.667 0-1.224-.222a2.8 2.8 0 0 1-.967-.657 3 3 0 0 1-.627-1.06 4.3 4.3 0 0 1-.223-1.436q0-1.072.369-1.816.375-.75 1.067-1.143t1.646-.392q.897 0 1.582.392.686.393 1.073 1.143t.386 1.816m-4.705 0q0 .71.17 1.213.176.504.539.774.363.263.938.263.574 0 .937-.263.363-.27.533-.774t.17-1.213-.17-1.201q-.17-.498-.533-.756-.363-.264-.943-.264-.855 0-1.248.575-.393.574-.393 1.646m9.575-3.351a4 4 0 0 1 .691.064l-.129 1.289a2 2 0 0 0-.305-.053 3 3 0 0 0-.316-.017q-.37 0-.703.123-.334.117-.592.363-.258.24-.404.604a2.2 2.2 0 0 0-.147.843V318h-1.383v-6.486h1.079l.187 1.142h.064q.194-.345.481-.633a2.3 2.3 0 0 1 .656-.457q.375-.175.821-.175m7.552 0q1.231 0 1.858.545.633.544.632 1.699V318h-.978l-.264-.92h-.047a3.3 3.3 0 0 1-.568.58 2 2 0 0 1-.68.34 3.2 3.2 0 0 1-.931.117q-.58 0-1.037-.211a1.64 1.64 0 0 1-.721-.656q-.264-.44-.264-1.113 0-1.002.744-1.506.75-.504 2.262-.557l1.125-.041v-.34q0-.673-.316-.961-.31-.287-.879-.287-.486 0-.944.141a7 7 0 0 0-.89.346l-.445-.973a5 5 0 0 1 1.078-.41 5 5 0 0 1 1.265-.158m1.125 3.509-.838.03q-1.031.035-1.447.351-.416.317-.416.867 0 .481.287.704.288.216.756.216.715 0 1.184-.404.474-.41.474-1.201zm5.426 3.94h12v-12h-12z" fill="#fff" class="float"/><rect x="781" y="294" width="38" height="38" rx="19" fill="#EDE4FF"/><path d="M800.775 310.506q-.615 0-1.101.223-.48.222-.815.644a2.9 2.9 0 0 0-.509 1.014q-.177.591-.176 1.336 0 .996.281 1.716.282.715.856 1.102.573.381 1.453.381.544 0 1.06-.106.515-.105 1.067-.287v1.196q-.522.204-1.055.298a7 7 0 0 1-1.231.094q-1.312 0-2.179-.545a3.33 3.33 0 0 1-1.289-1.535q-.423-.99-.422-2.32 0-.973.269-1.781.27-.81.786-1.395a3.4 3.4 0 0 1 1.271-.908q.762-.322 1.74-.322.645 0 1.266.146a5.2 5.2 0 0 1 1.16.404l-.492 1.16a7 7 0 0 0-.932-.363 3.4 3.4 0 0 0-1.008-.152" fill="#000"/><rect x="185" y="46" width="38" height="38" rx="19" fill="#EDE4FF"/><path d="M198 70.84h12v-12h-12z" fill="#000"/><rect x="666" y="139" width="38" height="38" rx="19" fill="#EDE4FF"/><path d="M679 163.84h12v-12h-12z" fill="#000"/><rect x="63" y="249" width="38" height="38" rx="19" fill="#EDE4FF"/><path d="M76 273.84h12v-12H76z" fill="#000"/><rect x=".5" y="128.5" width="37" height="37" rx="18.5" fill="#fff"/><rect x=".5" y="128.5" width="37" height="37" rx="18.5" fill="url(#pattern0_294_1114)"/><rect x=".5" y="128.5" width="37" height="37" rx="18.5" stroke="#8A6DF9"/><rect x="45" y="128" width="118" height="39" rx="6" fill="#fff"/><path d="M45 128h112a6 6 0 0 1 6 6v27a6 6 0 0 1-6 6H51a6 6 0 0 1-6-6z" fill="#F7F7F7"/><path d="M62.88 152h-1.4v-3.867h-3.949V152h-1.406v-8.566h1.406v3.504h3.95v-3.504h1.4zm7.87-3.258a4.5 4.5 0 0 1-.21 1.436q-.213.627-.616 1.06-.405.428-.973.657a3.5 3.5 0 0 1-1.283.222q-.668 0-1.225-.222a2.8 2.8 0 0 1-.966-.657 3 3 0 0 1-.627-1.06 4.3 4.3 0 0 1-.223-1.436q0-1.072.37-1.816.375-.75 1.066-1.143.691-.392 1.646-.392.897 0 1.582.392.686.393 1.072 1.143.387.75.387 1.816m-4.705 0q0 .71.17 1.213.176.504.539.774.364.263.937.263.575 0 .938-.263.363-.27.533-.774t.17-1.213q0-.708-.17-1.201-.169-.498-.533-.756-.363-.264-.944-.264-.855 0-1.248.575-.392.574-.392 1.646m11.59 3.252-.82-3.017-.141-.539a51 51 0 0 1-.164-.651l-.153-.627-.1-.445h-.046q-.029.158-.094.445t-.146.627q-.083.34-.164.662-.076.323-.141.551l-.861 2.994h-1.512l-1.816-6.486h1.394l.844 3.222q.081.329.158.709a17 17 0 0 1 .229 1.295h.046a20 20 0 0 1 .159-.908q.052-.27.105-.504.053-.24.1-.386l.996-3.428h1.506l.955 3.428q.065.222.14.562.077.334.135.674.064.334.082.557h.047q.024-.2.082-.54.064-.345.147-.732.08-.393.17-.727l.86-3.222h1.372l-1.828 6.486zm10.213.123q-.92 0-1.594-.357a2.4 2.4 0 0 1-1.037-1.096q-.364-.738-.364-1.875 0-1.184.399-1.934t1.102-1.107q.708-.357 1.623-.357.58 0 1.048.117.475.111.803.275l-.41 1.102a6 6 0 0 0-.733-.246 2.8 2.8 0 0 0-.72-.1q-.57 0-.95.252-.375.252-.562.75-.181.498-.181 1.236 0 .715.187 1.207.187.487.557.739.368.246.908.246.533 0 .955-.129a4.2 4.2 0 0 0 .797-.334v1.195q-.37.211-.791.311-.422.105-1.037.105m5.894-6.726q1.23 0 1.858.545.632.544.632 1.699V152h-.978l-.264-.92h-.047a3.4 3.4 0 0 1-.568.58 2 2 0 0 1-.68.34 3.2 3.2 0 0 1-.931.117q-.58 0-1.037-.211a1.64 1.64 0 0 1-.721-.656q-.264-.44-.264-1.113 0-1.002.744-1.506.75-.504 2.262-.557l1.125-.041v-.34q0-.673-.316-.961-.31-.287-.88-.287-.486 0-.943.141a7 7 0 0 0-.89.346l-.446-.973a5 5 0 0 1 1.079-.41 5 5 0 0 1 1.265-.158m1.125 3.509-.838.03q-1.031.034-1.447.351t-.416.867q0 .481.287.704.287.216.756.216.715 0 1.184-.404.474-.41.474-1.201zm6.674-3.509q1.096 0 1.705.568.615.563.615 1.811V152h-1.377v-3.973q0-.756-.31-1.131-.311-.38-.961-.38-.944 0-1.313.58-.363.58-.363 1.681V152H98.16v-6.486h1.072l.194.879h.076q.21-.34.521-.557.317-.222.704-.334.392-.111.814-.111m7.506 6.609v-8.566h1.406V152zm8.021-9.117v2.291q0 .358-.023.697a8 8 0 0 1-.041.527h.076q.206-.34.504-.556.299-.223.668-.334.375-.112.797-.112.744 0 1.265.252a1.7 1.7 0 0 1 .797.768q.282.522.282 1.354V152h-1.377v-3.973q0-.756-.311-1.131-.31-.38-.961-.38-.627 0-.996.263-.363.258-.521.768-.159.504-.159 1.23V152h-1.377v-9.117zm8.836 2.508q.868 0 1.489.357.62.357.955 1.014.334.656.334 1.57v.738h-4.33q.023.944.503 1.453.487.51 1.36.51.621 0 1.113-.117a6 6 0 0 0 1.026-.357v1.119a4.6 4.6 0 0 1-.991.334 6 6 0 0 1-1.207.105q-.954 0-1.681-.369a2.7 2.7 0 0 1-1.131-1.113q-.405-.738-.405-1.834 0-1.09.37-1.852a2.66 2.66 0 0 1 1.037-1.16q.668-.398 1.558-.398m0 1.037q-.65 0-1.054.422-.399.422-.469 1.236h2.953a2.3 2.3 0 0 0-.164-.861 1.25 1.25 0 0 0-.469-.586q-.31-.211-.797-.211m5.713 5.572h-1.383v-9.117h1.383zm5.297-6.609q1.155 0 1.852.843.702.844.703 2.508 0 1.102-.328 1.858-.323.75-.909 1.136-.579.381-1.353.381-.492 0-.856-.129a2.1 2.1 0 0 1-.621-.334 2.4 2.4 0 0 1-.433-.457h-.082q.029.235.052.522.03.28.03.515v2.643h-1.383v-9.363h1.125l.193.896h.065q.181-.274.439-.51.264-.234.633-.369.375-.14.873-.14m-.369 1.125q-.569 0-.914.228-.34.223-.498.674-.153.452-.164 1.131v.193q0 .721.146 1.225.153.498.498.762.352.257.949.257.504 0 .833-.275.333-.275.498-.785t.164-1.201q0-1.05-.375-1.629-.369-.58-1.137-.58m3.533 6.324h12v-12h-12z" fill="#6C6C6C"/><defs><linearGradient id="paint0_linear_294_1114" x1="398.757" y1="136.832" x2="406.742" y2="134.516" gradientUnits="userSpaceOnUse"><stop stop-color="#6528F7"/><stop offset=".835" stop-color="#6528F7"/><stop offset="1" stop-color="#6528F7"/></linearGradient><linearGradient id="paint1_linear_294_1114" x1="382.271" y1="188.513" x2="400.387" y2="186.924" gradientUnits="userSpaceOnUse"><stop stop-color="#6528F7"/><stop offset=".835" stop-color="#6528F7"/><stop offset="1" stop-color="#6528F7"/></linearGradient><linearGradient id="paint2_linear_294_1114" x1="359.397" y1="131.79" x2="379.007" y2="123.107" gradientUnits="userSpaceOnUse"><stop stop-color="#6528F7"/><stop offset=".835" stop-color="#6528F7"/><stop offset="1" stop-color="#6528F7"/></linearGradient><linearGradient id="paint3_linear_294_1114" x1="358.379" y1="159.169" x2="359.861" y2="159.123" gradientUnits="userSpaceOnUse"><stop stop-color="#6528F7"/><stop offset=".835" stop-color="#6528F7"/><stop offset="1" stop-color="#6528F7"/></linearGradient><linearGradient id="paint4_linear_294_1114" x1="367.991" y1="82.723" x2="344.792" y2="99.478" gradientUnits="userSpaceOnUse"><stop stop-color="#FFF9FF" stop-opacity=".36"/><stop offset="1" stop-color="#D7BBF5" stop-opacity=".03"/></linearGradient><pattern id="pattern0_294_1114" patternContentUnits="objectBoundingBox" width="1" height="1"><use transform="translate(.166 .139)scale(.00352)"/></pattern><filter id="filter0_f_294_1114" x="384.397" y="82.374" width="12.313" height="17.451" filterUnits="userSpaceOnUse" color-interpolation-filters="sRGB"><feFlood flood-opacity="0" result="BackgroundImageFix"/><feBlend in="SourceGraphic" in2="BackgroundImageFix" result="shape"/><feGaussianBlur stdDeviation="2" result="effect1_foregroundBlur_294_1114"/></filter><image id="image0_294_1114" width="192" height="192"/></defs><style>@keyframes float{0%,to{transform:translateY(0)}50%{transform:translateY(-10px)}}.float{animation:float 4s ease-in-out infinite}</style></svg>