<svg width="366" height="366" viewBox="0 0 366 366" fill="none" xmlns="http://www.w3.org/2000/svg">
<path d="M322.592 250.665C316.951 240.595 306.581 237.907 302.102 237.822L308.443 251.457L322.592 250.665Z" fill="#9479FA"/>
<path d="M276.239 276.467C270.089 265.255 273.566 255.967 276.074 252.725L284.305 264.815L276.239 276.467Z" fill="#9479FA"/>
<path d="M285.438 265.965C275.623 256.546 270.037 238.758 268.471 231.042C268.436 228.954 280.323 217.755 288.025 219.927C299.016 227.39 307.169 248.603 309.08 252.884C310.609 256.308 309.125 257.885 308.192 258.245C303.438 260.854 293.387 266.376 291.215 267.593C288.5 269.114 287.315 268.156 285.438 265.965Z" fill="#D7BBF5"/>
<path d="M285.258 265.914C275.442 256.496 269.856 238.708 268.29 230.992C268.255 228.903 280.142 217.705 287.844 219.876C298.835 227.34 306.988 248.553 308.9 252.833C310.428 256.257 308.945 257.834 308.012 258.195C303.258 260.804 293.206 266.326 291.034 267.543C288.319 269.064 287.134 268.106 285.258 265.914Z" fill="#D7BBF5"/>
<path d="M308.487 252.716C282.107 253.095 273.032 235.446 271.792 226.574C270.805 227.127 269.028 229.744 268.262 230.984C270.264 245.266 279.764 258.753 284.154 264.563C287.666 269.212 290.479 268.425 291.446 267.451L306.75 258.878C310.304 256.887 309.389 253.941 308.487 252.716Z" fill="white" fill-opacity="0.7"/>
<path d="M318.45 291.9C318.216 299.732 306.486 291.574 299.466 285.509C291.611 278.721 295.712 264.912 308.247 266.159C320.782 267.407 318.72 282.83 318.45 291.9Z" fill="#EDE4FF"/>
<path d="M314.357 285.455C314.229 291.181 305.371 285.145 300.064 280.667C294.124 275.656 297.12 265.583 306.541 266.571C315.961 267.559 314.505 278.825 314.357 285.455Z" fill="#9479FA"/>
<circle cx="285.309" cy="237.661" r="8.20228" transform="rotate(15.7443 285.309 237.661)" fill="white" fill-opacity="0.7"/>
<circle cx="285.557" cy="237.523" r="6.00167" transform="rotate(15.7443 285.557 237.523)" fill="white" fill-opacity="0.7"/>
<path d="M287.448 219.764C276.658 220.879 270.446 227.234 268.442 230.41C267.914 228.599 267.942 221.124 270.119 214.878C271.86 209.882 282.323 215.825 287.448 219.764Z" fill="#9479FA"/>
<rect x="322.469" y="282.391" width="6.22713" height="55.3462" rx="3.11357" transform="rotate(-29.5481 322.469 282.391)" fill="#9479FA"/>
<rect x="294.171" y="296.927" width="6.22713" height="55.3462" rx="3.11357" transform="rotate(-29.5481 294.171 296.927)" fill="#9479FA"/>
<rect x="316.83" y="302.069" width="6.22713" height="55.3462" rx="3.11357" transform="rotate(-29.5481 316.83 302.069)" fill="#9479FA"/>
<circle cx="193.858" cy="203.453" r="67.2187" fill="#EDE4FF"/>
<path d="M193.856 295.777C195.789 295.777 197.356 294.21 197.356 292.277C197.356 290.344 195.789 288.777 193.856 288.777V295.777ZM151.106 281.313L149.421 284.381H149.421L151.106 281.313ZM118.909 251.126L121.862 249.248L118.909 251.126ZM113.405 165.803L110.235 164.319L113.405 165.803ZM141.456 131.73L139.392 128.904L141.456 131.73ZM182.444 115.364L181.994 111.893L182.444 115.364ZM226.249 120.745L224.972 124.004V124.004L226.249 120.745ZM243.39 146.544C243.39 156.854 251.747 165.211 262.056 165.211C272.366 165.211 280.723 156.854 280.723 146.544C280.723 136.235 272.366 127.878 262.056 127.878C251.747 127.878 243.39 136.235 243.39 146.544ZM193.856 288.777C179.499 288.777 165.375 285.155 152.79 278.245L149.421 284.381C163.038 291.857 178.321 295.777 193.856 295.777V288.777ZM152.79 278.245C140.205 271.335 129.568 261.362 121.862 249.248L115.956 253.005C124.294 266.112 135.804 276.904 149.421 284.381L152.79 278.245ZM121.862 249.248C114.157 237.134 109.632 223.272 108.708 208.945L101.723 209.396C102.723 224.898 107.618 239.898 115.956 253.005L121.862 249.248ZM108.708 208.945C107.784 194.618 110.49 180.29 116.575 167.286L110.235 164.319C103.651 178.389 100.723 193.893 101.723 209.396L108.708 208.945ZM116.575 167.286C122.66 154.283 131.928 143.026 143.521 134.556L139.392 128.904C126.848 138.068 116.82 150.249 110.235 164.319L116.575 167.286ZM143.521 134.556C155.113 126.087 168.656 120.679 182.893 118.835L181.994 111.893C166.588 113.889 151.935 119.74 139.392 128.904L143.521 134.556ZM182.893 118.835C197.131 116.99 211.604 118.768 224.972 124.004L227.525 117.486C213.06 111.821 197.4 109.897 181.994 111.893L182.893 118.835ZM224.972 124.004C238.34 129.239 250.171 137.763 259.369 148.787L264.744 144.302C254.791 132.374 241.99 123.151 227.525 117.486L224.972 124.004Z" fill="#EDE4FF"/>
<path fill-rule="evenodd" clip-rule="evenodd" d="M255.471 231.264C244.42 240.397 230.365 245.864 215.064 245.864C179.487 245.864 150.646 216.307 150.646 179.846C150.646 167.319 154.051 155.607 159.963 145.628C140.25 157.345 127.039 178.856 127.039 203.453C127.039 240.576 157.134 270.671 194.258 270.671C221.463 270.671 244.893 254.51 255.471 231.264Z" fill="#D7BBF5"/>
<circle cx="181.052" cy="233.861" r="8.40178" fill="#D7BBF5" stroke="#EDE4FF" stroke-width="4"/>
<circle cx="152.444" cy="176.045" r="5.00084" fill="#D7BBF5" stroke="#EDE4FF" stroke-width="4"/>
<circle cx="197.657" cy="146.437" r="5.00084" fill="#D7BBF5" stroke="#EDE4FF" stroke-width="4"/>
<circle cx="206.06" cy="179.246" r="8.60184" fill="#D7BBF5" stroke="#EDE4FF" stroke-width="4"/>
<circle cx="237.27" cy="202.452" r="16.204" fill="#D7BBF5" stroke="#EDE4FF" stroke-width="4"/>
<circle cx="198.657" cy="206.253" r="9.60212" fill="#D7BBF5" stroke="#EDE4FF" stroke-width="4"/>
<circle cx="170.65" cy="163.841" r="7.20145" fill="#D7BBF5" stroke="#EDE4FF" stroke-width="4"/>
<circle cx="175.852" cy="188.248" r="4.40067" fill="#D7BBF5" stroke="#EDE4FF" stroke-width="4"/>
<path d="M20.0975 23.9468C21.0125 21.1307 24.9964 21.1307 25.9114 23.9468C26.3206 25.2061 27.4942 26.0588 28.8184 26.0588C31.7794 26.0588 33.0105 29.8478 30.615 31.5882C29.5437 32.3665 29.0955 33.7462 29.5047 35.0056C30.4196 37.8216 27.1965 40.1633 24.8011 38.4229C23.7298 37.6446 22.2791 37.6446 21.2078 38.4229C18.8124 40.1633 15.5893 37.8216 16.5043 35.0056C16.9134 33.7462 16.4652 32.3665 15.3939 31.5882C12.9984 29.8478 14.2295 26.0588 17.1905 26.0588C18.5147 26.0588 19.6883 25.2061 20.0975 23.9468Z" fill="#EDE4FF"/>
<path d="M68.2919 326.123C68.5207 325.419 69.5167 325.419 69.7454 326.123C69.8477 326.438 70.1411 326.651 70.4722 326.651C71.2124 326.651 71.5202 327.598 70.9213 328.033C70.6535 328.228 70.5414 328.573 70.6437 328.887C70.8725 329.591 70.0667 330.177 69.4678 329.742C69.2 329.547 68.8374 329.547 68.5695 329.742C67.9707 330.177 67.1649 329.591 67.3936 328.887C67.4959 328.573 67.3839 328.228 67.116 328.033C66.5172 327.598 66.825 326.651 67.5652 326.651C67.8962 326.651 68.1896 326.438 68.2919 326.123Z" fill="#EDE4FF"/>
<path d="M316.071 40.5973C316.643 38.8373 319.133 38.8373 319.704 40.5973C319.96 41.3845 320.694 41.9174 321.521 41.9174C323.372 41.9174 324.141 44.2855 322.644 45.3732C321.975 45.8597 321.694 46.722 321.95 47.5091C322.522 49.2691 320.508 50.7327 319.01 49.6449C318.341 49.1585 317.434 49.1585 316.765 49.6449C315.267 50.7327 313.253 49.2691 313.825 47.5091C314.081 46.722 313.801 45.8597 313.131 45.3732C311.634 44.2855 312.403 41.9174 314.254 41.9174C315.081 41.9174 315.815 41.3845 316.071 40.5973Z" fill="#EDE4FF"/>
<path d="M141.442 62.3923C142.197 60.0691 145.484 60.0691 146.239 62.3923C146.576 63.4313 147.544 64.1347 148.637 64.1347C151.08 64.1347 152.095 67.2607 150.119 68.6965C149.235 69.3386 148.865 70.4768 149.203 71.5158C149.958 73.8391 147.299 75.771 145.323 74.3351C144.439 73.693 143.242 73.693 142.358 74.3351C140.382 75.771 137.723 73.8391 138.478 71.5158C138.815 70.4768 138.445 69.3386 137.562 68.6965C135.585 67.2607 136.601 64.1347 139.044 64.1347C140.136 64.1347 141.105 63.4313 141.442 62.3923Z" fill="#EDE4FF"/>
<path d="M269.639 337.321C270.153 335.737 272.394 335.737 272.909 337.321C273.139 338.029 273.799 338.509 274.544 338.509C276.21 338.509 276.902 340.64 275.555 341.619C274.952 342.057 274.7 342.833 274.93 343.541C275.445 345.125 273.632 346.443 272.285 345.464C271.682 345.026 270.866 345.026 270.263 345.464C268.916 346.443 267.103 345.125 267.618 343.541C267.848 342.833 267.596 342.057 266.993 341.619C265.646 340.64 266.338 338.509 268.004 338.509C268.748 338.509 269.409 338.029 269.639 337.321Z" fill="#EDE4FF"/>
<path d="M18.2966 170.758C19.0858 168.329 22.5219 168.329 23.3111 170.758C23.664 171.844 24.6763 172.579 25.8184 172.579C28.3722 172.579 29.4341 175.847 27.368 177.349C26.444 178.02 26.0573 179.21 26.4103 180.296C27.1994 182.725 24.4195 184.745 22.3534 183.244C21.4294 182.572 20.1783 182.572 19.2543 183.244C17.1882 184.745 14.4082 182.725 15.1974 180.296C15.5503 179.21 15.1637 178.02 14.2397 177.349C12.1736 175.847 13.2355 172.579 15.7893 172.579C16.9314 172.579 17.9436 171.844 18.2966 170.758Z" fill="#EDE4FF"/>
</svg>
