<svg width="54" height="15" viewBox="0 0 54 15" fill="none" xmlns="http://www.w3.org/2000/svg">
<path d="M39.3225 7.28746C39.3225 8.14754 39.3225 9.00762 39.3225 9.8677C39.3225 10.7678 39.0958 11.6012 38.6291 12.3746C38.089 13.268 37.3289 13.9014 36.3755 14.2881C36.0288 14.4281 35.6688 14.5348 35.2754 14.5681C35.0354 14.5881 34.7954 14.6415 34.5553 14.6281C33.7153 14.5748 32.9219 14.3614 32.2085 13.8947C31.3817 13.3614 30.7683 12.6413 30.3816 11.7345C30.1349 11.1612 30.0416 10.5544 30.0216 9.93437C30.0149 9.58101 30.3083 9.1743 30.6083 9.12097C31.015 9.05429 31.2817 9.08763 31.5484 9.481C31.7084 9.72102 31.6818 10.0144 31.7084 10.2811C31.8284 11.4278 32.4418 12.2079 33.4686 12.6946C34.0553 12.9747 34.6754 13.008 35.2754 12.888C36.1155 12.7213 36.7889 12.2546 37.2356 11.4945C37.5356 10.9878 37.6623 10.4411 37.669 9.86103C37.669 9.38099 37.669 8.90095 37.6756 8.4209C37.6756 8.3809 37.6956 8.33423 37.6556 8.31422C37.6023 8.28089 37.569 8.33423 37.5356 8.3609C37.1156 8.71426 36.6422 8.96095 36.1222 9.12097C35.5154 9.31432 34.8887 9.41433 34.242 9.34099C33.5686 9.26098 32.9285 9.08096 32.3485 8.73426C31.4751 8.20755 30.8283 7.48748 30.4083 6.54739C30.0216 5.68731 29.9549 4.78723 30.1016 3.89382C30.2416 3.00707 30.6617 2.22033 31.2884 1.56027C31.8218 0.993548 32.4485 0.560175 33.1819 0.333487C33.9086 0.1068 34.6487 0.000123262 35.4288 0.153471C36.5622 0.373491 37.489 0.893539 38.229 1.76695C38.6291 2.24033 38.9224 2.78038 39.1024 3.38044C39.2491 3.86715 39.3225 4.36053 39.3158 4.86724C39.3025 5.66731 39.3158 6.46739 39.3158 7.27413L39.3225 7.28746ZM31.7084 4.74056C31.6417 6.38071 33.0619 7.74751 34.6954 7.73417C36.3488 7.72084 37.669 6.37405 37.669 4.76723C37.669 3.03374 36.3355 1.75362 34.6754 1.74695C33.0752 1.74695 31.6617 3.04707 31.7084 4.74056Z" fill="#BDBDBD"/>
<path d="M50.6395 6.58709C50.6395 7.20715 50.6395 7.82053 50.6395 8.44059C50.6395 8.9273 50.4594 9.194 50.0527 9.33401C49.6794 9.46069 49.2527 9.274 49.086 8.9073C49.026 8.77396 48.9726 8.64061 48.986 8.48726C48.9926 8.35392 48.9526 8.31391 48.8326 8.40726C48.4192 8.74062 47.9525 8.98731 47.4525 9.14066C46.7991 9.34068 46.1324 9.43402 45.439 9.33401C44.8189 9.24733 44.2389 9.06732 43.7055 8.75395C42.9454 8.30725 42.3387 7.70052 41.9186 6.91378C41.4719 6.07371 41.2919 5.17362 41.3853 4.2402C41.4586 3.54014 41.692 2.88008 42.0787 2.27336C42.492 1.62663 43.0254 1.09325 43.6988 0.719879C44.6589 0.193163 45.6657 -0.046859 46.7791 0.166494C47.9992 0.393182 48.966 0.999904 49.7194 1.96666C50.1727 2.55338 50.4528 3.22678 50.5794 3.94684C50.6461 4.34021 50.6461 4.75358 50.6395 5.16696C50.6328 5.64033 50.6395 6.11371 50.6395 6.58709ZM48.9793 4.76025C49.0126 3.06009 47.6458 1.73997 46.0124 1.73997C44.3055 1.73997 43.0187 3.04676 42.9987 4.70691C42.9787 6.3604 44.2722 7.71386 45.979 7.72053C47.6658 7.73386 48.9926 6.37373 48.9793 4.75358V4.76025Z" fill="#BDBDBD"/>
<path d="M19.325 4.64677C19.3384 7.22701 17.2182 9.30053 14.6913 9.3072C12.151 9.3072 10.0375 7.22034 10.0508 4.66677C10.0642 2.0332 12.1777 -0.000324311 14.7313 0.0196775C17.1848 0.0396794 19.2917 1.98653 19.325 4.64677ZM14.6846 1.6865C13.0511 1.63316 11.691 3.05329 11.6977 4.68677C11.711 6.30692 13.0511 7.70705 14.7646 7.65372C16.3981 7.60704 17.6915 6.32693 17.6849 4.65344C17.6849 3.02662 16.4048 1.65983 14.6779 1.6865H14.6846Z" fill="#BDBDBD"/>
<path d="M9.27049 6.29353C9.27049 7.10694 9.27049 7.77366 9.27049 8.43373C9.27049 8.80043 9.1038 9.07379 8.77044 9.24047C8.25039 9.49382 7.69034 9.08045 7.64367 8.64041C7.63033 8.49373 7.617 8.35372 7.617 8.20704C7.617 7.0336 7.637 5.85349 7.617 4.68005C7.597 3.47327 7.05028 2.55318 5.97018 1.98646C5.27678 1.62643 4.53672 1.59309 3.78998 1.79978C2.86323 2.05314 2.24317 2.65319 1.85647 3.51327C1.68979 3.89331 1.62311 4.30668 1.62311 4.72005C1.61645 5.94683 1.62311 7.18028 1.62311 8.40706C1.62311 8.76042 1.50977 9.04045 1.1764 9.22047C0.676359 9.49382 0.00963052 9.12712 0.00296324 8.55374C-0.00370405 7.92701 0.00296324 7.30695 0.00296324 6.68023C0.00296324 5.9735 -0.00370405 5.2601 0.00296324 4.55337C0.0162978 3.19991 0.569682 2.09314 1.55644 1.19306C2.04982 0.746348 2.62321 0.426319 3.2566 0.2263C3.48995 0.15296 3.73664 0.0996221 3.98333 0.0662857C4.23002 0.0329492 4.47671 -0.0137217 4.7234 0.0062801C5.56348 0.0662856 6.35688 0.279639 7.07695 0.739681C7.91703 1.27306 8.53042 2.00646 8.91712 2.91988C9.05713 3.24658 9.13714 3.58661 9.20381 3.93998C9.35049 4.78005 9.23048 5.62013 9.27715 6.30686L9.27049 6.29353Z" fill="#BDBDBD"/>
<path d="M21.6915 6.5406C21.6915 7.20066 21.6781 7.85406 21.6915 8.51412C21.7048 8.88082 21.3381 9.22752 21.0314 9.30086C20.678 9.38087 20.278 9.14751 20.1313 8.81415C20.058 8.6408 20.0246 8.46745 20.0313 8.28076C20.0313 7.09399 20.018 5.90054 20.0313 4.71377C20.0513 3.40031 20.518 2.25354 21.4581 1.32679C21.9315 0.860079 22.4849 0.520048 23.1183 0.300028C23.625 0.126678 24.1184 0 24.6451 0C25.7585 0 26.7519 0.346699 27.6187 1.05343C28.3988 1.69349 28.9255 2.49356 29.1922 3.46699C29.2788 3.78035 29.2988 4.10038 29.3455 4.41374C29.4122 4.90712 29.1722 5.25382 28.7788 5.42717C28.3988 5.59385 27.8654 5.30049 27.752 4.88712C27.6987 4.70043 27.6854 4.51375 27.6654 4.3204C27.5653 3.25363 27.0186 2.47356 26.0852 1.98685C24.5917 1.21345 22.6982 1.82017 21.9982 3.39365C21.8115 3.82035 21.7048 4.26039 21.7048 4.7271C21.7048 5.33383 21.7048 5.93388 21.7048 6.5406H21.6915Z" fill="#BDBDBD"/>
<path d="M53.5663 5.93394C53.5663 6.78069 53.5529 7.62743 53.5663 8.47418C53.5796 8.94089 53.1729 9.26092 52.7995 9.30092C52.4062 9.34093 52.0261 9.01423 51.9595 8.60086C51.9461 8.53418 51.9395 8.46751 51.9395 8.40751C51.9395 6.77402 51.9395 5.14054 51.9395 3.50705C51.9395 3.17369 52.0395 2.907 52.3395 2.72698C52.5928 2.57363 52.8595 2.57363 53.1129 2.69365C53.3796 2.82032 53.5596 3.04034 53.5596 3.36037C53.5596 4.22045 53.5596 5.08053 53.5596 5.94061L53.5663 5.93394Z" fill="#BDBDBD"/>
<path d="M53.5674 0.953437C53.5674 1.42681 53.2341 1.74684 52.754 1.74684C52.274 1.74684 51.9473 1.41348 51.9473 0.94677C51.9473 0.420054 52.3606 0.126694 52.7673 0.106692C53.2007 0.0800228 53.5607 0.493394 53.5607 0.960104L53.5674 0.953437Z" fill="#BDBDBD"/>
<path d="M41.687 8.42746C41.687 8.88083 41.3203 9.24087 40.8669 9.22753C40.3535 9.2142 40.0668 8.82749 40.0401 8.41412C40.0135 8.00742 40.4868 7.55404 40.8869 7.58071C41.3003 7.61405 41.6936 7.94075 41.687 8.42746Z" fill="#BDBDBD"/>
</svg>
